<svg xmlns:x="http://ns.adobe.com/Extensibility/1.0/"
     fill="#27c24c" xmlns:i="http://ns.adobe.com/AdobeIllustrator/10.0/"
     xmlns:graph="http://ns.adobe.com/Graphs/1.0/"
     xmlns="http://www.w3.org/2000/svg"
     xmlns:xlink="http://www.w3.org/1999/xlink" version="1.1"
     x="0px" y="0px" viewBox="0 0 101 101"
     enable-background="new 0 0 101 101"
     xml:space="preserve"><metadata>
<sfw xmlns="http://ns.adobe.com/SaveForWeb/1.0/">
    <slices></slices>
    <sliceSourceBounds y="389.508" x="251.323" height="70.296" width="94.086" bottomLeftOrigin="true"></sliceSourceBounds>
</sfw></metadata>
<g>
    <circle cx="36.253" cy="73.096" r="2.445"></circle>
    <path d="M17.12,64.697c-4.631,0-8.398,3.768-8.398,8.398c0,4.63,3.768,8.396,8.398,8.396c4.629,0,8.396-3.767,8.396-8.396   C25.517,68.465,21.749,64.697,17.12,64.697z M17.12,77.742c-2.564,0-4.648-2.084-4.648-4.646c0-2.563,2.084-4.648,4.648-4.648   c2.562,0,4.646,2.085,4.646,4.648C21.767,75.658,19.683,77.742,17.12,77.742z"></path><circle cx="17.12" cy="73.096" r="2.445"></circle><path d="M94.659,68.955h-0.443V58.363c0-1.674-1.109-3.146-2.719-3.605l-11.162-3.189c-0.336-0.096-0.682-0.145-1.031-0.145h-2.521   l-2.143-7.854c0.881-0.153,1.553-0.917,1.553-1.843c0-1.035-0.84-1.875-1.875-1.875h-2.125h-8.139h-2.125   c-1.035,0-1.875,0.84-1.875,1.875l0.086,25.361h3.752c1.035,0,1.875,0.84,1.875,1.875s-0.84,1.875-1.875,1.875H63.89V70.83h-5.391   c-0.758-2.137-2.764-3.678-5.145-3.742c-0.051-0.002-1.26-0.002-1.312,0c-0.773,0.021-1.508,0.197-2.172,0.501   c-1.219,0.555-2.201,1.53-2.768,2.741c-0.076,0.163-0.143,0.329-0.203,0.5h-2.568c-0.992-3.532-4.234-6.133-8.078-6.133   c-4.631,0-8.398,3.768-8.398,8.398c0,4.63,3.768,8.396,8.398,8.396c4.123,0,7.553-2.989,8.258-6.912h2.389   c0.094,0.267,0.203,0.525,0.334,0.771c0.947,1.771,2.814,2.979,4.963,2.979H53.2c2.449,0,4.525-1.566,5.299-3.75h2.16   c0.65,1.116,1.846,1.875,3.23,1.875h5.252c-0.334-1.061-0.516-2.189-0.516-3.359c0-6.182,5.029-11.211,11.209-11.211   c6.182,0,11.211,5.029,11.211,11.211c0,1.17-0.182,2.299-0.516,3.359h4.129c2.072,0,3.75-1.679,3.75-3.75   S96.731,68.955,94.659,68.955z M36.253,77.742c-2.562,0-4.648-2.084-4.648-4.646c0-2.563,2.086-4.648,4.648-4.648   s4.646,2.085,4.646,4.648C40.899,75.658,38.815,77.742,36.253,77.742z M63.804,55.426V43.602h0.25h6.707l3.227,11.824H63.804z"></path><path d="M79.835,64.697c-4.629,0-8.396,3.768-8.396,8.398c0,4.63,3.768,8.396,8.396,8.396c4.631,0,8.398-3.767,8.398-8.396   C88.233,68.465,84.466,64.697,79.835,64.697z M79.835,77.742c-2.562,0-4.646-2.084-4.646-4.646c0-2.563,2.084-4.648,4.646-4.648   c2.564,0,4.648,2.085,4.648,4.648C84.483,75.658,82.399,77.742,79.835,77.742z"></path><circle cx="79.835" cy="73.096" r="2.445"></circle><path d="M42.495,56.404c-0.198,0.838,0.031,1.754,0.7,2.389l6.219,5.906c0.483,0.46,1.103,0.688,1.722,0.688   c0.661,0,1.321-0.261,1.812-0.778c0.951-1.001,0.91-2.584-0.091-3.534l-6.219-5.906c-0.668-0.635-1.595-0.818-2.421-0.576   l-4.635-4.402l13.396-13.396c0.45-0.45,0.642-1.096,0.509-1.717l-1.623-7.611c-0.075-0.354-0.253-0.678-0.509-0.935L39.281,14.457   l0.06-0.061c0.732-0.731,0.732-1.919,0-2.651c-0.731-0.731-1.919-0.731-2.651,0.001l-5.002,5.002   c-0.369,0.385-0.599,0.938-0.553,1.478l0.555,7.28c0,0-23.953,24.03-26.984,27.103c-0.234,0.228-0.382,0.542-0.382,0.895v11.259   c0,0.69,0.56,1.25,1.25,1.25s1.25-0.56,1.25-1.25v-8.125l5.012,5.012c0.293,0.293,0.675,0.481,1.086,0.533l12.081,1.557   c0.287,0.037,0.577,0.006,0.845-0.086c0.268-0.091,0.515-0.242,0.72-0.447l11.271-11.226L42.495,56.404z"></path>
</g>
</svg>